<svg width="375" height="374" viewBox="0 0 375 374" fill="none" xmlns="http://www.w3.org/2000/svg">
<path d="M166.305 48.1867L165.944 46.6014L164.393 47.0887L117.869 61.7057L116.359 62.18L116.914 63.6623L127.549 92.0915L105.02 109.322L80.8709 95.3461L79.6274 94.6265L78.8548 95.8378L54.4931 134.037L53.669 135.329L54.9786 136.125L78.8128 150.616L71.1711 180.146L45.1873 184.503L43.7358 184.746L43.9516 186.202L50.912 233.157L51.1396 234.693L52.6663 234.413L80.1674 229.371L94.411 256.5L74.8786 276.435L73.7329 277.604L74.9975 278.643L112.675 309.611L113.813 310.546L114.768 309.425L132.829 288.241L159.875 298.741L160.05 327.066L160.059 328.525L161.518 328.557L206.079 329.517L207.601 329.55L207.611 328.027L207.785 300.519L236.332 289.315L255.34 313.119L256.318 314.344L257.499 313.312L292.545 282.665L293.642 281.706L292.715 280.582L274.393 258.347L288.979 232.236L319.314 238.755L320.881 239.091L321.113 237.506L327.726 192.416L327.942 190.944L326.472 190.716L301.195 186.786L295.369 155.871L320.755 142.797L322.074 142.117L321.409 140.791L301.078 100.219L300.41 98.8872L299.074 99.5447L271.367 113.179L248.632 92.8705L259.741 64.2575L260.284 62.8592L258.885 62.3163L215.696 45.5484L214.297 45.0056L213.755 46.4039L202.646 75.0169L172.335 74.6666L166.305 48.1867Z" fill="#F75544" stroke="#F75544" stroke-width="3" stroke-linecap="round"/>
<circle cx="187.462" cy="188.549" r="95.3415" transform="rotate(21.218 187.462 188.549)" fill="#252120"/>
<path d="M186.79 88.8965V282.546M108.551 133.886L268.947 239.512M105.29 236.252L268.947 137.146" stroke="#F75544" stroke-width="18" stroke-dasharray="40 40"/>
<circle cx="187.463" cy="185.721" r="65.488" stroke="#F75544" stroke-width="18"/>
<circle cx="187.117" cy="185.722" r="18.202" stroke="#F75544" stroke-width="26"/>
</svg>
