<svg width="195" height="194" viewBox="0 0 195 194" fill="none" xmlns="http://www.w3.org/2000/svg">
<path d="M87.8645 26.137L87.5035 24.5516L85.9523 25.039L62.3954 32.4402L60.8855 32.9145L61.4401 34.3968L66.633 48.2775L56.0542 56.3683L44.2545 49.5393L43.011 48.8196L42.2385 50.031L29.9031 69.3728L29.079 70.6649L30.3886 71.461L41.9868 78.5125L38.3757 92.4673L25.6931 94.5936L24.2415 94.837L24.4573 96.2929L27.9817 120.068L28.2093 121.604L29.736 121.324L43.125 118.869L49.8333 131.646L40.3205 141.355L39.1749 142.524L40.4395 143.563L59.517 159.243L60.6551 160.179L61.6109 159.058L70.4144 148.731L83.1495 153.676L83.2348 167.514L83.2438 168.973L84.7024 169.005L107.266 169.491L108.788 169.524L108.798 168.001L108.883 154.574L122.362 149.284L131.646 160.91L132.625 162.135L133.805 161.103L151.551 145.585L152.647 144.626L151.721 143.502L142.765 132.634L149.637 120.332L164.462 123.518L166.029 123.855L166.261 122.269L169.609 99.438L169.825 97.9667L168.356 97.7382L156.074 95.8287L153.323 81.2321L165.686 74.8647L167.005 74.1854L166.34 72.8592L156.045 52.3155L155.378 50.9842L154.042 51.6417L140.461 58.325L129.704 48.7163L135.143 34.7067L135.686 33.3084L134.288 32.7655L112.419 24.2752L111.021 23.7324L110.478 25.1307L105.039 39.1402L90.7879 38.9756L87.8645 26.137Z" fill="#F75544" stroke="#F75544" stroke-width="3"/>
<circle cx="97.855" cy="98.4147" r="45.256" transform="rotate(21.218 97.855 98.4147)" fill="#252120"/>
<circle cx="97.8554" cy="98.4148" r="28.1911" transform="rotate(21.218 97.8554 98.4148)" fill="#252120" stroke="#F75544" stroke-width="8"/>
<path d="M96.0841 51.8066V68.8677M96.0841 145.195V129.481M148.615 99.3989H125.717M68.2471 99.3989H47.5938M116.737 76.5006L128.411 61.6841M77.6757 120.052L64.6551 133.073M116.737 120.052L134.697 136.216M58.3693 61.6841L77.6757 79.1945" stroke="#F75544" stroke-width="8"/>
</svg>
