<svg width="687" height="517" viewBox="0 0 687 517" fill="none" xmlns="http://www.w3.org/2000/svg">
<path d="M413.434 116.968L416.353 119.342L417.252 123.134L422.605 145.716L419.253 152.431L407.884 175.209L407.366 176.247L402.704 178.332L379.509 188.703L376.256 187.611L352.832 179.749L348.144 178.175L347.841 177.657L334.653 155.146L331.628 149.982L336.706 125.769L337.679 121.128L339.55 119.554L358.08 103.966L362.766 100.025L362.938 100.019L388.771 99.116L391.364 99.0255L393.376 100.662L413.434 116.968Z" stroke="#F75544" stroke-width="91"/>
<circle cx="379.982" cy="143.898" r="40.3394" transform="rotate(18.5552 379.982 143.898)" fill="#1F1F1F"/>
<path d="M117.869 204.706L116.359 205.18L116.914 206.662L127.549 235.091L105.02 252.322L80.8709 238.346L79.6274 237.626L78.8548 238.838L54.4931 277.037L53.669 278.329L54.9786 279.125L78.8128 293.616L71.1711 323.146L45.1873 327.503L43.7358 327.746L43.9516 329.202L50.912 376.157L51.1396 377.693L52.6663 377.413L80.1674 372.371L94.411 399.5L74.8786 419.435L73.7329 420.604L74.9975 421.643L112.675 452.611L113.813 453.546L114.768 452.425L132.829 431.241L159.875 441.741L160.05 470.066L160.059 471.525L161.518 471.557L206.079 472.517L207.601 472.55L207.611 471.027L207.785 443.519L236.332 432.315L255.34 456.119L256.318 457.344L257.499 456.312L292.545 425.665L293.642 424.706L292.715 423.582L274.393 401.347L288.979 375.236L319.314 381.755L320.881 382.091L321.113 380.506L327.726 335.416L327.942 333.944L326.472 333.716L301.195 329.786L295.369 298.871L320.755 285.797L322.074 285.117L321.409 283.791L301.078 243.219L300.41 241.887L299.074 242.545L271.367 256.179L248.632 235.87L259.741 207.257L260.284 205.859L258.885 205.316L215.696 188.548L214.297 188.006L213.755 189.404L202.646 218.017L172.335 217.667L166.305 191.187L165.944 189.601L164.393 190.089L117.869 204.706Z" fill="#F75544" stroke="#F75544" stroke-width="3" stroke-linecap="round"/>
<circle cx="187.462" cy="331.549" r="95.3415" transform="rotate(21.218 187.462 331.549)" fill="#252120"/>
<path d="M186.79 231.896V425.546M108.551 276.886L268.947 382.512M105.29 379.252L268.947 280.146" stroke="#F75544" stroke-width="18" stroke-dasharray="40 40"/>
<circle cx="187.463" cy="328.721" r="65.488" stroke="#F75544" stroke-width="18"/>
<circle cx="187.117" cy="328.722" r="18.202" stroke="#F75544" stroke-width="26"/>
<path d="M554.395 63.4402L552.886 63.9145L553.44 65.3968L558.633 79.2775L548.054 87.3683L536.255 80.5393L535.011 79.8196L534.238 81.031L521.903 100.373L521.079 101.665L522.389 102.461L533.987 109.513L530.376 123.467L517.693 125.594L516.242 125.837L516.457 127.293L519.982 151.068L520.209 152.604L521.736 152.324L535.125 149.869L541.833 162.646L532.321 172.355L531.175 173.524L532.44 174.563L551.517 190.243L552.655 191.179L553.611 190.058L562.414 179.731L575.149 184.676L575.235 198.514L575.244 199.973L576.702 200.005L599.266 200.491L600.788 200.524L600.798 199.001L600.883 185.574L614.362 180.284L623.646 191.91L624.625 193.135L625.805 192.103L643.551 176.585L644.647 175.626L643.721 174.502L634.765 163.634L641.637 151.332L656.462 154.518L658.029 154.855L658.261 153.269L661.609 130.438L661.825 128.967L660.356 128.738L648.074 126.829L645.323 112.232L657.686 105.865L659.005 105.185L658.34 103.859L648.045 83.3155L647.378 81.9842L646.042 82.6417L632.461 89.325L621.704 79.7163L627.143 65.7067L627.686 64.3084L626.288 63.7655L604.419 55.2752L603.021 54.7324L602.478 56.1307L597.039 70.1402L582.788 69.9756L579.865 57.137L579.504 55.5516L577.952 56.039L554.395 63.4402Z" fill="#F75544" stroke="#F75544" stroke-width="3"/>
<circle cx="589.855" cy="129.415" r="45.256" transform="rotate(21.218 589.855 129.415)" fill="#252120"/>
<circle cx="589.855" cy="129.415" r="28.1911" transform="rotate(21.218 589.855 129.415)" fill="#252120" stroke="#F75544" stroke-width="8"/>
<path d="M588.084 82.8066V99.8677M588.084 176.195V160.481M640.615 130.399H617.717M560.247 130.399H539.594M608.737 107.501L620.411 92.6841M569.676 151.052L556.655 164.073M608.737 151.052L626.697 167.216M550.369 92.6841L569.676 110.195" stroke="#F75544" stroke-width="8"/>
<path d="M397.541 263.861L395.985 263.575L395.782 265.145L394.391 275.943L385.014 277.522L379.691 269.032L378.928 267.814L377.679 268.524L362.658 277.063L361.326 277.821L362.112 279.136L367.213 287.677L360.245 295.318L351.28 292.347L349.882 291.884L349.393 293.272L343.374 310.344L342.857 311.808L344.338 312.274L353.858 315.269L353.83 325.596L344.336 328.631L342.777 329.13L343.409 330.639L350.595 347.794L351.165 349.153L352.533 348.608L361.785 344.927L368.188 352.312L363.492 361.334L362.818 362.628L364.093 363.337L378.946 371.601L380.277 372.341L380.997 370.999L385.661 362.309L395.977 363.471L398.017 374.211L398.31 375.752L399.836 375.391L417.114 371.302L418.531 370.966L418.237 369.54L416.149 359.399L424.612 353.912L433.153 361.074L434.381 362.104L435.328 360.811L445.591 346.786L446.469 345.586L445.277 344.697L437.98 339.26L441.126 329.086L451.323 329.193L452.806 329.209L452.838 327.726L453.212 310.423L453.244 308.934L451.756 308.891L440.61 308.57L437.004 298.861L445.362 291.614L446.496 290.631L445.513 289.498L433.938 276.149L432.955 275.015L431.822 275.998L423.464 283.245L414.514 278.382L417.01 269.086L417.431 267.516L415.832 267.222L397.541 263.861Z" fill="#F75544" stroke="#F75544" stroke-width="3"/>
<circle cx="379.315" cy="315.603" r="10.7164" transform="rotate(77.0958 379.315 315.603)" fill="#252120"/>
<circle cx="417.835" cy="323.005" r="10.7164" transform="rotate(77.0958 417.835 323.005)" fill="#252120"/>
<circle cx="402.276" cy="300.044" r="10.7164" transform="rotate(77.0958 402.276 300.044)" fill="#252120"/>
<circle cx="394.874" cy="338.565" r="10.7164" transform="rotate(77.0958 394.874 338.565)" fill="#252120"/>
<circle cx="372.905" cy="336.095" r="4.98677" transform="rotate(77.0958 372.905 336.095)" fill="#252120"/>
<circle cx="397.871" cy="319.522" r="4.98677" transform="rotate(77.0958 397.871 319.522)" fill="#252120"/>
<circle cx="382.1" cy="295.279" r="4.98677" transform="rotate(77.0958 382.1 295.279)" fill="#252120"/>
<circle cx="415.853" cy="344.052" r="4.98677" transform="rotate(77.0958 415.853 344.052)" fill="#252120"/>
<circle cx="422.395" cy="301.536" r="4.98677" transform="rotate(77.0958 422.395 301.536)" fill="#252120"/>
<path d="M169.273 64.9218L167.763 65.3962L168.317 66.8784L172.272 77.4482L164.413 83.4589L155.423 78.2564L154.18 77.5368L153.407 78.7481L143.809 93.7983L142.985 95.0904L144.294 95.8866L153.108 101.245L150.414 111.655L140.759 113.274L139.307 113.517L139.523 114.973L142.265 133.473L142.493 135.009L144.019 134.729L154.197 132.863L159.19 142.374L151.958 149.755L150.812 150.924L152.077 151.963L166.921 164.164L168.059 165.1L169.015 163.979L175.712 156.124L185.19 159.803L185.255 170.345L185.264 171.804L186.723 171.836L204.28 172.214L205.802 172.247L205.812 170.724L205.877 160.501L215.927 156.557L222.997 165.412L223.976 166.637L225.157 165.605L238.965 153.53L240.061 152.571L239.135 151.447L232.311 143.166L237.427 134.007L248.722 136.434L250.289 136.771L250.522 135.185L253.127 117.42L253.343 115.949L251.873 115.72L242.549 114.27L240.498 103.388L249.897 98.5465L251.216 97.8673L250.551 96.541L242.541 80.5556L241.874 79.2242L240.537 79.8818L230.171 84.9831L222.14 77.8095L226.289 67.1234L226.832 65.7251L225.434 65.1822L208.417 58.5758L207.019 58.0329L206.476 59.4312L202.327 70.1173L191.731 69.9949L189.515 60.2608L189.154 58.6755L187.603 59.1628L169.273 64.9218Z" fill="#F75544" stroke="#F75544" stroke-width="3" stroke-linecap="round"/>
<circle cx="196.963" cy="116.576" r="35.2146" transform="rotate(21.218 196.963 116.576)" fill="#252120"/>
<circle cx="196.964" cy="116.575" r="30.2112" transform="rotate(21.218 196.964 116.575)" fill="#F75544"/>
<circle cx="196.963" cy="116.576" r="23.8403" transform="rotate(21.218 196.963 116.576)" fill="#252120"/>
</svg>
