<svg width="687" height="523" viewBox="0 0 687 523" fill="none" xmlns="http://www.w3.org/2000/svg">
<path d="M387.42 118.031L390.323 120.424L391.196 124.222L396.396 146.839L392.999 153.532L381.475 176.233L380.95 177.267L376.274 179.32L353.01 189.534L349.764 188.42L326.394 180.399L321.717 178.794L321.417 178.274L308.382 155.674L305.392 150.489L310.634 126.312L311.639 121.677L313.521 120.116L332.155 104.654L336.867 100.744L337.04 100.739L362.879 100.012L365.472 99.9387L367.473 101.589L387.42 118.031Z" stroke="#F75544" stroke-width="91"/>
<circle cx="353.787" cy="144.733" r="40.3394" transform="rotate(18.9433 353.787 144.733)" fill="#1F1F1F"/>
<path d="M166.305 197.187L165.944 195.601L164.393 196.089L117.869 210.706L116.359 211.18L116.914 212.662L127.549 241.091L105.02 258.322L80.8709 244.346L79.6274 243.626L78.8548 244.838L54.4931 283.037L53.669 284.329L54.9786 285.125L78.8128 299.616L71.1711 329.146L45.1873 333.503L43.7358 333.746L43.9516 335.202L50.912 382.157L51.1396 383.693L52.6663 383.413L80.1674 378.371L94.411 405.5L74.8786 425.435L73.7329 426.604L74.9975 427.643L112.675 458.611L113.813 459.546L114.768 458.425L132.829 437.241L159.875 447.741L160.05 476.066L160.059 477.525L161.518 477.557L206.079 478.517L207.601 478.55L207.611 477.027L207.785 449.519L236.332 438.315L255.34 462.119L256.318 463.344L257.499 462.312L292.545 431.665L293.642 430.706L292.715 429.582L274.393 407.347L288.979 381.236L319.314 387.755L320.881 388.091L321.113 386.506L327.726 341.416L327.942 339.944L326.472 339.716L301.195 335.786L295.369 304.871L320.755 291.797L322.074 291.117L321.409 289.791L301.078 249.219L300.41 247.887L299.074 248.545L271.367 262.179L248.632 241.87L259.741 213.257L260.284 211.859L258.885 211.316L215.696 194.548L214.297 194.006L213.755 195.404L202.646 224.017L172.335 223.667L166.305 197.187Z" fill="#F75544" stroke="#F75544" stroke-width="3" stroke-linecap="round"/>
<circle cx="187.462" cy="337.549" r="95.3415" transform="rotate(21.218 187.462 337.549)" fill="#252120"/>
<path d="M186.79 237.896V431.546M108.551 282.886L268.947 388.512M105.29 385.252L268.947 286.146" stroke="#F75544" stroke-width="18" stroke-dasharray="40 40"/>
<circle cx="187.463" cy="334.721" r="65.488" stroke="#F75544" stroke-width="18"/>
<circle cx="187.117" cy="334.722" r="18.202" stroke="#F75544" stroke-width="26"/>
<path d="M579.865 63.137L579.504 61.5516L577.952 62.039L554.395 69.4402L552.886 69.9145L553.44 71.3968L558.633 85.2775L548.054 93.3683L536.255 86.5393L535.011 85.8196L534.238 87.031L521.903 106.373L521.079 107.665L522.389 108.461L533.987 115.513L530.376 129.467L517.693 131.594L516.242 131.837L516.457 133.293L519.982 157.068L520.209 158.604L521.736 158.324L535.125 155.869L541.833 168.646L532.321 178.355L531.175 179.524L532.44 180.563L551.517 196.243L552.655 197.179L553.611 196.058L562.414 185.731L575.149 190.676L575.235 204.514L575.244 205.973L576.702 206.005L599.266 206.491L600.788 206.524L600.798 205.001L600.883 191.574L614.362 186.284L623.646 197.91L624.625 199.135L625.805 198.103L643.551 182.585L644.647 181.626L643.721 180.502L634.765 169.634L641.637 157.332L656.462 160.518L658.029 160.855L658.261 159.269L661.609 136.438L661.825 134.967L660.356 134.738L648.074 132.829L645.323 118.232L657.686 111.865L659.005 111.185L658.34 109.859L648.045 89.3155L647.378 87.9842L646.042 88.6417L632.461 95.325L621.704 85.7163L627.143 71.7067L627.686 70.3084L626.288 69.7655L604.419 61.2752L603.021 60.7324L602.478 62.1307L597.039 76.1402L582.788 75.9756L579.865 63.137Z" fill="#F75544" stroke="#F75544" stroke-width="3"/>
<circle cx="589.855" cy="135.415" r="45.256" transform="rotate(21.218 589.855 135.415)" fill="#252120"/>
<circle cx="589.855" cy="135.415" r="28.1911" transform="rotate(21.218 589.855 135.415)" fill="#252120" stroke="#F75544" stroke-width="8"/>
<path d="M588.084 88.8066V105.868M588.084 182.195V166.481M640.615 136.399H617.717M560.247 136.399H539.594M608.737 113.501L620.411 98.6841M569.676 157.052L556.655 170.073M608.737 157.052L626.697 173.216M550.369 98.6841L569.676 116.195" stroke="#F75544" stroke-width="8"/>
<path d="M440.016 291.476L441.179 290.34L439.952 289.272L425.923 277.064L424.729 276.025L423.756 277.273L417.059 285.857L408.185 282.44L407.928 272.422L407.891 270.986L406.455 270.961L389.18 270.66L387.647 270.633L387.654 272.165L387.693 282.113L377.805 285.14L371.603 278.017L370.637 276.907L369.508 277.852L355.633 289.479L354.443 290.476L355.48 291.631L362.148 299.057L356.864 307.93L347.148 305.706L345.552 305.341L345.327 306.963L342.775 325.386L342.573 326.845L344.028 327.073L353.865 328.617L355.614 338.234L346.977 343.606L345.738 344.377L346.474 345.636L355.049 360.313L355.817 361.628L357.12 360.84L365.559 355.736L373.846 361.99L370.131 372.272L369.598 373.747L371.096 374.214L388.047 379.494L389.438 379.927L389.912 378.55L393.279 368.759L403.357 368.348L407.06 378.861L407.592 380.373L409.065 379.742L425.041 372.9L426.408 372.314L425.834 370.942L422.323 362.547L430.212 355.393L438.933 360.679L440.202 361.448L440.985 360.188L450.119 345.488L450.905 344.223L449.646 343.428L440.217 337.474L442.059 327.283L452.943 325.303L454.419 325.034L454.15 323.559L450.988 306.175L450.719 304.7L449.243 304.968L438.36 306.948L433.134 298.205L440.016 291.476Z" fill="#F75544" stroke="#F75544" stroke-width="3"/>
<circle cx="383.886" cy="312.309" r="10.7164" transform="rotate(107.713 383.886 312.309)" fill="#252120"/>
<circle cx="413.266" cy="338.298" r="10.7164" transform="rotate(107.713 413.266 338.298)" fill="#252120"/>
<circle cx="411.57" cy="310.613" r="10.7164" transform="rotate(107.713 411.57 310.613)" fill="#252120"/>
<circle cx="385.581" cy="339.994" r="10.7164" transform="rotate(107.713 385.581 339.994)" fill="#252120"/>
<circle cx="367.933" cy="326.68" r="4.98677" transform="rotate(107.713 367.933 326.68)" fill="#252120"/>
<circle cx="397.858" cy="325.133" r="4.98677" transform="rotate(107.713 397.858 325.133)" fill="#252120"/>
<circle cx="396.634" cy="296.237" r="4.98677" transform="rotate(107.713 396.634 296.237)" fill="#252120"/>
<circle cx="400.842" cy="355.401" r="4.98677" transform="rotate(107.713 400.842 355.401)" fill="#252120"/>
<circle cx="428.125" cy="322.145" r="4.98677" transform="rotate(107.713 428.125 322.145)" fill="#252120"/>
<path d="M158.587 70.2763L157.904 68.8008L156.488 69.6003L139.759 79.0486L138.381 79.8268L139.231 81.1612L145.299 90.6764L138.863 98.1913L128.988 94.9739L127.622 94.5288L127.119 95.8744L120.863 112.593L120.326 114.028L121.773 114.534L131.509 117.941L131.041 128.684L121.934 132.277L120.564 132.817L121.079 134.196L127.612 151.72L128.154 153.175L129.589 152.583L139.155 148.639L146.019 156.903L140.481 165.628L139.604 167.01L141.057 167.763L158.116 176.607L159.424 177.285L160.125 175.989L165.04 166.912L175.077 168.539L177.335 178.836L177.647 180.261L179.08 179.988L196.331 176.704L197.828 176.419L197.52 174.928L195.456 164.916L204.465 158.966L213.223 166.155L214.436 167.15L215.376 165.894L226.368 151.21L227.241 150.043L226.101 149.137L217.703 142.458L220.8 132.434L232.353 132.457L233.956 132.46L233.853 130.861L232.704 112.943L232.608 111.459L231.124 111.541L221.702 112.064L217.43 101.846L225.616 95.1549L226.765 94.2161L225.839 93.0572L214.676 79.0893L213.746 77.9259L212.576 78.8472L203.499 85.9946L194.151 80.6496L195.985 69.334L196.224 67.8533L194.744 67.6134L176.725 64.6937L175.244 64.4537L175.004 65.9344L173.171 77.25L162.781 79.3358L158.587 70.2763Z" fill="#F75544" stroke="#F75544" stroke-width="3" stroke-linecap="round"/>
<circle cx="177.595" cy="123.807" r="35.2146" transform="rotate(9.20414 177.595 123.807)" fill="#252120"/>
<circle cx="177.595" cy="123.807" r="30.2112" transform="rotate(9.20414 177.595 123.807)" fill="#F75544"/>
<circle cx="177.595" cy="123.807" r="23.8403" transform="rotate(9.20414 177.595 123.807)" fill="#252120"/>
</svg>
