<svg width="376" height="374" viewBox="0 0 376 374" fill="none" xmlns="http://www.w3.org/2000/svg">
<path d="M118.445 61.9186L116.935 62.3929L117.49 63.8752L128.126 92.3043L105.596 109.535L81.447 95.559L80.2035 94.8394L79.431 96.0507L55.0693 134.25L54.2452 135.542L55.5547 136.338L79.3889 150.829L71.7473 180.359L45.7635 184.716L44.3119 184.959L44.5277 186.415L51.4882 233.37L51.7158 234.906L53.2425 234.626L80.7436 229.584L94.9872 256.713L75.4547 276.648L74.3091 277.817L75.5737 278.856L113.251 309.823L114.389 310.759L115.345 309.638L133.405 288.453L160.451 298.954L160.626 327.279L160.635 328.738L162.094 328.77L206.655 329.73L208.177 329.763L208.187 328.24L208.362 300.732L236.908 289.528L255.916 313.332L256.894 314.557L258.075 313.525L293.121 282.878L294.218 281.919L293.291 280.795L274.969 258.56L289.555 232.449L319.89 238.967L321.457 239.304L321.69 237.719L328.302 192.629L328.518 191.157L327.048 190.929L301.771 186.999L295.945 156.084L321.331 143.01L322.65 142.33L321.985 141.004L301.654 100.431L300.987 99.1001L299.65 99.7576L271.943 113.392L249.208 93.0833L260.317 64.4704L260.86 63.0721L259.462 62.5292L216.272 45.7613L214.874 45.2185L214.331 46.6168L203.222 75.2298L172.911 74.8795L166.881 48.3996L166.52 46.8143L164.969 47.3016L118.445 61.9186Z" fill="#F75544" stroke="#F75544" stroke-width="3" stroke-linecap="round"/>
<circle cx="188.038" cy="188.761" r="61.2282" transform="rotate(21.218 188.038 188.761)" fill="#252120"/>
<circle cx="188.039" cy="185.934" r="65.488" stroke="#F75544" stroke-width="18"/>
</svg>
