<svg width="193" height="192" viewBox="0 0 193 192" fill="none" xmlns="http://www.w3.org/2000/svg">
<path d="M138.016 62.4762L139.179 61.3395L137.952 60.2722L123.923 48.064L122.729 47.0251L121.756 48.2729L115.059 56.8571L106.185 53.4398L105.928 43.4223L105.891 41.986L104.455 41.9609L87.1797 41.6596L85.6474 41.6329L85.6535 43.1654L85.6935 53.1134L75.8054 56.1404L69.6031 49.0171L68.6366 47.907L67.5085 48.8523L53.6332 60.4788L52.4435 61.4757L53.4804 62.6306L60.1476 70.0566L54.8642 78.9297L45.1478 76.7065L43.5521 76.3414L43.3275 77.9628L40.7749 96.3856L40.5727 97.8449L42.0281 98.0734L51.8648 99.6173L53.6142 109.234L44.9773 114.606L43.7385 115.377L44.4744 116.636L53.0486 131.313L53.8168 132.628L55.12 131.84L63.559 126.736L71.8458 132.99L68.1313 143.272L67.5984 144.747L69.0959 145.214L86.047 150.494L87.4377 150.927L87.9115 149.55L91.279 139.759L101.357 139.348L105.06 149.861L105.592 151.373L107.065 150.742L123.041 143.9L124.408 143.314L123.834 141.942L120.323 133.547L128.212 126.393L136.933 131.679L138.202 132.448L138.985 131.188L148.119 116.488L148.905 115.223L147.646 114.428L138.217 108.474L140.059 98.2828L150.943 96.3028L152.419 96.0344L152.15 94.5586L148.988 77.1754L148.719 75.6997L147.243 75.9681L136.36 77.9481L131.134 69.2053L138.016 62.4762Z" fill="#F75544" stroke="#F75544" stroke-width="3"/>
<circle cx="81.8856" cy="83.3092" r="10.7164" transform="rotate(107.713 81.8856 83.3092)" fill="#252120"/>
<circle cx="111.265" cy="109.298" r="10.7164" transform="rotate(107.713 111.265 109.298)" fill="#252120"/>
<circle cx="109.57" cy="81.6129" r="10.7164" transform="rotate(107.713 109.57 81.6129)" fill="#252120"/>
<circle cx="83.5809" cy="110.994" r="10.7164" transform="rotate(107.713 83.5809 110.994)" fill="#252120"/>
<circle cx="65.9326" cy="97.6799" r="4.98677" transform="rotate(107.713 65.9326 97.6799)" fill="#252120"/>
<circle cx="95.8584" cy="96.1325" r="4.98677" transform="rotate(107.713 95.8584 96.1325)" fill="#252120"/>
<circle cx="94.6338" cy="67.237" r="4.98677" transform="rotate(107.713 94.6338 67.237)" fill="#252120"/>
<circle cx="98.8418" cy="126.401" r="4.98677" transform="rotate(107.713 98.8418 126.401)" fill="#252120"/>
<circle cx="126.125" cy="93.1447" r="4.98677" transform="rotate(107.713 126.125 93.1447)" fill="#252120"/>
</svg>
