<svg width="172" height="171" viewBox="0 0 172 171" fill="none" xmlns="http://www.w3.org/2000/svg">
<path d="M67.5873 33.2763L66.9042 31.8008L65.4885 32.6003L48.7586 42.0486L47.3805 42.8268L48.2315 44.1612L54.2992 53.6764L47.8634 61.1913L37.9882 57.9739L36.6222 57.5288L36.1187 58.8744L29.8632 75.5929L29.3262 77.0282L30.7727 77.5344L40.5086 80.9409L40.0406 91.6836L30.9335 95.2768L29.5644 95.8169L30.0785 97.1961L36.6116 114.72L37.1538 116.175L38.5888 115.583L48.1549 111.639L55.0185 119.903L49.4809 128.628L48.6037 130.01L50.057 130.763L67.116 139.607L68.4239 140.285L69.1254 138.989L74.0405 129.912L84.0769 131.539L86.3348 141.836L86.6473 143.261L88.0805 142.988L105.331 139.704L106.828 139.419L106.52 137.928L104.456 127.916L113.465 121.966L122.223 129.155L123.436 130.15L124.376 128.894L135.368 114.21L136.241 113.043L135.101 112.137L126.703 105.458L129.8 95.4341L141.353 95.4571L142.956 95.4603L142.853 93.861L141.704 75.9427L141.608 74.4586L140.124 74.541L130.702 75.0639L126.43 64.8463L134.616 58.1549L135.765 57.2161L134.839 56.0572L123.676 42.0893L122.746 40.9259L121.576 41.8472L112.499 48.9946L103.151 43.6496L104.985 32.334L105.224 30.8533L103.744 30.6134L85.7249 27.6937L84.2442 27.4537L84.0042 28.9344L82.1707 40.25L71.7814 42.3358L67.5873 33.2763Z" fill="#F75544" stroke="#F75544" stroke-width="3" stroke-linecap="round"/>
<circle cx="86.5953" cy="86.8069" r="35.2146" transform="rotate(9.20414 86.5953 86.8069)" fill="#252120"/>
<circle cx="86.5954" cy="86.8069" r="30.2112" transform="rotate(9.20414 86.5954 86.8069)" fill="#F75544"/>
<circle cx="86.5951" cy="86.8072" r="23.8403" transform="rotate(9.20414 86.5951 86.8072)" fill="#252120"/>
</svg>
