<svg width="201" height="201" viewBox="0 0 201 201" fill="none" xmlns="http://www.w3.org/2000/svg">
<rect x="199.892" y="200.118" width="199.61" height="200" transform="rotate(-180 199.892 200.118)" fill="#70348C"/>
<mask id="path-2-inside-1" fill="white">
<path d="M0.281265 200.118L200.281 200.118L200.281 1.42538L0.281265 200.118Z"/>
</mask>
<path d="M200.281 200.118L200.281 341.118L341.281 341.118L341.281 200.118L200.281 200.118ZM0.281265 200.118L-99.0933 100.09L-341.708 341.118L0.28125 341.118L0.281265 200.118ZM200.281 1.42538L341.281 1.42539L341.281 -337.407L100.907 -98.603L200.281 1.42538ZM200.281 59.1182L0.281281 59.1182L0.28125 341.118L200.281 341.118L200.281 59.1182ZM99.6559 300.147L299.656 101.454L100.907 -98.603L-99.0933 100.09L99.6559 300.147ZM59.2813 1.42537L59.2812 200.118L341.281 200.118L341.281 1.42539L59.2813 1.42537Z" fill="#1F1F1F" mask="url(#path-2-inside-1)"/>
</svg>
