<svg width="173" height="286" viewBox="0 0 173 286" fill="none" xmlns="http://www.w3.org/2000/svg">
<path d="M43.7747 47.4394L0.724247 0.00011933L86.6699 0.000126844L43.7747 47.4394Z" fill="#F6F7F6"/>
<path d="M43.7747 142.712L0.724247 95.2726L86.6699 95.2726L43.7747 142.712Z" fill="#F6F7F6"/>
<path d="M43.807 285.465L0.756474 238.026L86.7022 238.026L43.807 285.465Z" fill="#F6F7F6"/>
<path d="M43.7747 95.1123L0.724247 47.673L86.6699 47.673L43.7747 95.1123Z" fill="#F6F7F6"/>
<path d="M43.807 237.865L0.756474 190.426L86.7022 190.426L43.807 237.865Z" fill="#F6F7F6"/>
<path d="M43.7747 190.385L0.724247 142.945L86.6699 142.945L43.7747 190.385Z" fill="#F6F7F6"/>
<path d="M129.72 47.4394L86.6696 0.00011933L172.615 0.000126844L129.72 47.4394Z" fill="#F6F7F6"/>
<path d="M129.72 142.712L86.6696 95.2726L172.615 95.2726L129.72 142.712Z" fill="#F6F7F6"/>
<path d="M129.752 285.465L86.7018 238.026L172.647 238.026L129.752 285.465Z" fill="#F6F7F6"/>
<path d="M129.72 95.1123L86.6696 47.673L172.615 47.673L129.72 95.1123Z" fill="#F6F7F6"/>
<path d="M129.752 237.865L86.7018 190.426L172.647 190.426L129.752 237.865Z" fill="#F6F7F6"/>
<path d="M129.72 190.385L86.6696 142.945L172.615 142.945L129.72 190.385Z" fill="#F6F7F6"/>
</svg>
