<svg width="1550" height="798" viewBox="0 0 1550 798" fill="none" xmlns="http://www.w3.org/2000/svg">
<path d="M805.19 547.651C805.482 548.057 805.482 548.057 805.481 548.057L805.481 548.058L805.479 548.059L805.474 548.063L805.453 548.078L805.37 548.136C805.297 548.188 805.188 548.265 805.044 548.365C804.89 548.471 804.697 548.605 804.465 548.763C804.261 548.903 804.027 549.062 803.763 549.239C802.636 549.998 800.968 551.094 798.802 552.447C794.474 555.152 788.158 558.883 780.196 562.998C754.702 579.24 715.763 607.448 691.505 641.26C679.376 658.166 670.942 676.44 669.665 695.293C668.389 714.129 674.252 733.598 690.817 752.924C733.657 802.904 802.727 802.958 861.266 790.414C890.515 784.146 917.082 774.743 936.34 766.906C945.967 762.988 953.766 759.461 959.157 756.915C961.852 755.642 963.945 754.614 965.364 753.905C966.073 753.55 966.614 753.275 966.977 753.089C967.076 753.038 967.162 752.994 967.234 752.957C967.221 752.766 967.202 752.494 967.178 752.143C967.127 751.389 967.052 750.27 966.958 748.808C966.772 745.885 966.51 741.588 966.211 736.098C965.613 725.117 964.866 709.359 964.268 690.248C963.073 652.027 962.475 600.39 964.866 546.732C967.258 493.079 972.639 437.386 983.407 391.06C988.791 367.897 995.525 347.061 1003.91 329.986C1012.3 312.915 1022.36 299.569 1034.42 291.433C1046.54 283.248 1061.7 282.867 1079.05 288.035C1096.4 293.202 1116.04 303.936 1137.21 318.103C1167.59 338.43 1201.24 365.881 1235.97 394.22C1249.64 405.378 1263.48 416.673 1277.36 427.725C1326.52 466.877 1376.15 502.985 1420.48 519.315C1442.63 527.478 1463.42 530.681 1482.15 526.887C1500.86 523.095 1517.57 512.308 1531.55 492.378C1545.53 472.437 1550.72 453.165 1549.13 434.702C1547.54 416.229 1539.16 398.51 1525.92 381.696C1499.43 348.054 1453.57 318.136 1404.13 293.191C1354.7 268.253 1301.76 248.315 1261.16 234.609C1240.87 227.757 1223.66 222.464 1211.53 218.884C1205.47 217.094 1200.67 215.733 1197.39 214.819C1195.75 214.362 1194.49 214.017 1193.64 213.786C1193.22 213.671 1192.89 213.584 1192.68 213.526L1192.43 213.461L1192.37 213.444L1192.36 213.44C1192.35 213.44 1192.35 213.439 1192.38 213.329L1192.35 213.439L1192.16 213.388L1192.05 213.219L1192.48 212.956C1192.05 213.219 1192.05 213.218 1192.05 213.216L1192.05 213.207L1192.02 213.171L1191.93 213.025C1191.85 212.896 1191.73 212.704 1191.57 212.45C1191.25 211.942 1190.77 211.189 1190.14 210.21C1188.87 208.251 1187 205.386 1184.55 201.763C1179.65 194.518 1172.46 184.243 1163.32 172.13C1145.02 147.901 1118.9 116.323 1087.55 86.9132C1024.8 28.0542 941.347 -21.9385 857.976 12.6007C816.154 29.9271 787.216 45.4461 768.069 60.384C748.928 75.3169 739.611 89.6372 736.951 104.567C734.287 119.512 738.275 135.164 745.957 152.803C751.376 165.246 758.61 178.629 766.601 193.412C769.943 199.593 773.416 206.019 776.944 212.723C800.844 258.133 826.586 310.799 833.475 352.729C836.919 373.694 835.669 392.074 827.015 405.526C818.343 419.008 802.322 427.416 776.525 428.616C763.483 429.223 751.178 422.848 739.286 411.425C727.395 400.002 715.862 383.481 704.349 363.67C688.933 337.143 673.512 304.641 657.294 270.459C649.292 253.594 641.097 236.32 632.612 219.153C606.914 167.159 578.552 116.117 544.838 80.1664C511.135 44.2261 472.147 23.4293 425.159 31.7563C379.572 39.8353 353.906 59.201 341.106 83.8399C328.291 108.506 328.313 138.56 334.334 168.114C346.376 227.22 382.346 284.022 386.79 290.884L387.24 291.573L387.242 291.575L387.242 291.576L386.406 292.124L386.405 292.124L386.405 292.123L386.404 292.121L386.402 292.119L386.402 292.119L386.401 292.117L386.398 292.113L386.396 292.109L386.376 292.079L386.289 291.948C386.213 291.831 386.1 291.659 385.953 291.431C380.911 283.746 334.134 213.368 273.542 153.911C243.243 124.179 209.518 97.2075 175.856 82.1599C142.2 67.1155 108.676 64.0161 78.6805 81.8979C16.721 118.835 -4.13736 179.589 2.71809 240.692C9.57607 301.817 44.1716 363.256 93.0763 401.425C117.642 420.598 140.687 449.187 163.329 481.132C174.652 497.108 185.881 513.932 197.152 530.848L198.134 532.323C209.082 548.754 220.073 565.251 231.24 581.131C254.245 613.846 277.972 643.909 303.545 665.344C329.113 686.775 356.484 699.547 386.793 697.764C447.693 694.182 484.558 676.874 502.957 650.463C521.354 624.054 521.398 588.383 508.27 547.805C505.021 537.762 497.546 527.934 486.892 518.42C476.242 508.91 462.446 499.742 446.608 491.011C414.933 473.55 375.145 457.872 336.159 444.728C297.176 431.584 259.012 420.979 230.593 413.659C216.384 409.999 204.611 407.161 196.392 405.238C192.282 404.277 189.061 403.544 186.867 403.052C185.77 402.806 184.93 402.62 184.364 402.495C184.082 402.433 183.867 402.386 183.724 402.355L183.562 402.32L183.522 402.311L183.512 402.309C183.509 402.308 183.508 402.308 183.614 401.819L183.508 402.308L183.049 402.209L183.12 401.744L198.783 298.81C199.022 296.594 199.29 294.831 199.499 293.619C199.604 293.012 199.694 292.543 199.758 292.226C199.79 292.067 199.816 291.945 199.833 291.863C199.842 291.823 199.849 291.791 199.854 291.77L199.859 291.746L199.86 291.739L199.861 291.738L199.861 291.737C199.861 291.737 199.861 291.737 200.044 291.779L199.861 291.737L200.843 291.923L199.775 298.939C198.589 309.987 198.156 332.357 209.648 353.566C221.126 374.75 244.55 394.864 291.263 401.324C326.146 406.148 350.15 405.2 366.662 401.623C373.565 393.394 382.703 386.178 390.116 381.017C393.844 378.421 397.142 376.341 399.509 374.91C400.692 374.194 401.643 373.641 402.298 373.266C402.626 373.078 402.88 372.935 403.052 372.839C403.138 372.791 403.204 372.754 403.249 372.73L403.299 372.702L403.312 372.695L403.315 372.693L403.316 372.693C403.317 372.692 403.317 372.692 403.556 373.131M805.19 547.651L805.482 548.057L804.958 547.208L805.19 547.651ZM805.19 547.651C804.958 547.208 804.958 547.208 804.958 547.208L804.958 547.208L804.956 547.209L804.95 547.212L804.927 547.224L804.837 547.272C804.757 547.314 804.639 547.377 804.483 547.46C804.17 547.627 803.708 547.876 803.107 548.204C801.905 548.86 800.148 549.834 797.923 551.105C793.477 553.645 787.167 557.373 779.698 562.13C747.253 578.893 687.481 601.996 623.607 587.804C599.921 582.541 582.561 566.559 569.839 545.469C557.115 524.373 549.055 498.204 543.969 472.662C538.884 447.125 536.777 422.244 535.942 403.745C535.524 394.497 535.425 386.845 535.429 381.507C535.432 378.838 535.46 376.747 535.488 375.324C535.502 374.613 535.516 374.069 535.526 373.702C535.531 373.519 535.535 373.381 535.538 373.288L535.542 373.184L535.543 373.158L535.543 373.151C535.543 373.15 535.543 373.149 535.043 373.131L535.543 373.149L534.555 373.024L534.573 373.028C534.555 373.024 534.555 373.025 534.555 373.025L534.554 373.028L534.551 373.044L534.536 373.107C534.524 373.163 534.504 373.247 534.478 373.359C534.466 373.411 534.452 373.469 534.437 373.533C534.387 373.742 534.321 374.014 534.237 374.344C534.021 375.207 533.688 376.47 533.228 378.068C532.306 381.265 530.873 385.799 528.824 391.144C524.726 401.837 518.172 415.761 508.348 428.711C498.524 441.66 485.444 453.619 468.294 460.412C451.151 467.202 429.9 468.849 403.698 461.107C375.652 452.82 362.772 442.713 358.758 432.496C354.777 422.362 359.438 411.882 367.21 402.527C385.501 398.5 394.732 391.235 399.382 384.9C401.711 381.727 402.88 378.802 403.466 376.661C403.759 375.591 403.907 374.718 403.981 374.107C404.018 373.802 404.037 373.563 404.046 373.397C404.051 373.315 404.054 373.25 404.055 373.206C404.055 373.183 404.056 373.166 404.056 373.153L404.056 373.139L404.056 373.134V373.132C404.056 373.132 404.056 373.131 403.556 373.131M403.556 373.131H404.056V372.289L403.317 372.692L403.556 373.131ZM367.467 401.445C380.031 386.735 399.636 375.338 403.043 373.417M403.52 373.723C403.194 377.154 399.956 394.586 367.74 401.896M402.983 374.026C402.913 374.591 402.774 375.402 402.502 376.397C401.944 378.434 400.824 381.245 398.575 384.308C394.206 390.261 385.533 397.219 368.29 401.256C374.999 393.543 383.612 386.764 390.687 381.838C394.395 379.257 397.674 377.188 400.026 375.766C401.202 375.055 402.146 374.505 402.795 374.134C402.861 374.096 402.924 374.06 402.983 374.026Z" stroke="black"/>
</svg>
